<svg width="62" height="51" viewBox="0 0 62 51" fill="none" xmlns="http://www.w3.org/2000/svg">
<path fill-rule="evenodd" clip-rule="evenodd" d="M28.8859 1.17361L4.70925 7.67819C2.04265 8.39562 0.458126 11.1401 1.17012 13.8082L7.65918 38.1246C8.37117 40.7926 11.1101 42.3739 13.7767 41.6565L23.9916 38.9082L22.6203 33.7696L18.4853 34.8821C15.2854 35.743 11.9988 33.8454 11.1444 30.6438L7.91357 18.537C7.05918 15.3353 8.9606 12.0419 12.1605 11.181L24.1772 7.948C27.3771 7.08709 30.6638 8.98464 31.5182 12.1863L31.6708 12.7582L36.7851 11.3822L35.0034 4.70552C34.2914 2.03747 31.5525 0.456174 28.8859 1.17361ZM37.7508 11.1224L35.969 4.44572C35.1146 1.24405 31.828 -0.653501 28.6281 0.207418L4.45141 6.712C1.25149 7.57292 -0.649933 10.8663 0.20446 14.068L6.69352 38.3844C7.54791 41.5861 10.8346 43.4836 14.0345 42.6227L24.2494 39.8744L26.0311 46.5511C26.8855 49.7528 30.1722 51.6504 33.3721 50.7894L57.5488 44.2849C60.7487 43.4239 62.6501 40.1306 61.7957 36.9289L55.3067 12.6125C54.4523 9.4108 51.1656 7.51325 47.9657 8.37417L37.7508 11.1224ZM37.0429 12.3484L31.9286 13.7244L33.2999 18.863L38.4142 17.487L37.0429 12.3484ZM39.3799 17.2272L38.0086 12.0886L48.2235 9.34035C50.8901 8.62292 53.629 10.2042 54.341 12.8723L60.8301 37.1887C61.5421 39.8568 59.9575 42.6012 57.2909 43.3187L33.1143 49.8232C30.4477 50.5407 27.7088 48.9594 26.9968 46.2913L25.2151 39.6146L30.3294 38.2387L30.482 38.8105C31.3364 42.0122 34.6231 43.9098 37.823 43.0488L49.8397 39.8158C53.0396 38.9549 54.941 35.6615 54.0866 32.4599L50.8558 20.3531C50.0014 17.1514 46.7148 15.2538 43.5148 16.1148L39.3799 17.2272ZM38.6721 18.4532L33.5578 19.8292L34.749 24.2931C35.6034 27.4948 33.702 30.7881 30.502 31.6491L29.6659 31.874L31.0372 37.0127L37.9533 35.1519C40.6199 34.4345 42.2044 31.69 41.4924 29.0219L38.6721 18.4532ZM31.295 37.9788L38.2111 36.1181C41.4111 35.2572 43.3125 31.9638 42.4581 28.7621L39.6377 18.1934L43.7727 17.0809C46.4393 16.3635 49.1782 17.9448 49.8902 20.6129L53.121 32.7197C53.833 35.3877 52.2484 38.1322 49.5818 38.8496L37.5651 42.0826C34.8985 42.8001 32.1597 41.2188 31.4477 38.5507L31.295 37.9788ZM30.0715 37.2725L28.7003 32.1338L23.5859 33.5098L24.9572 38.6484L30.0715 37.2725ZM23.3281 32.5436L28.4424 31.1676L27.2512 26.7037C26.3968 23.5021 28.2982 20.2087 31.4981 19.3478L32.3343 19.1228L30.963 13.9842L24.0469 15.8449C21.3803 16.5624 19.7958 19.3068 20.5078 21.9749L23.3281 32.5436ZM30.7051 13.018L30.5525 12.4461C29.8405 9.77805 27.1016 8.19676 24.435 8.91419L12.4184 12.1472C9.75176 12.8646 8.16724 15.6091 8.87923 18.2772L12.11 30.384C12.822 33.052 15.5609 34.6333 18.2275 33.9159L22.3624 32.8034L19.5421 22.2347C18.6877 19.033 20.5891 15.7397 23.789 14.8787L30.7051 13.018ZM32.5921 20.089L31.756 20.314C29.0894 21.0314 27.5049 23.7759 28.2169 26.4439L29.4081 30.9078L30.2442 30.6829C32.9108 29.9654 34.4953 27.221 33.7833 24.5529L32.5921 20.089Z" fill="white"/>
</svg>
